<svg xmlns="http://www.w3.org/2000/svg" width="1100" height="980" viewBox="0 0 1100 980">
  <defs>
    <marker id="arrow" viewBox="0 0 10 10" refX="9" refY="5" markerWidth="7" markerHeight="7" orient="auto-start-reverse">
      <path d="M 0 0 L 10 5 L 0 10 z" fill="#555"/>
    </marker>
    <style>
      .box { fill:#f4f4f4; stroke:#777; stroke-width:1.2; }
      .line { fill:none; stroke:#555; stroke-width:1.25; marker-end:url(#arrow); }
      .label { font-family:'Times New Roman',serif; font-size:17px; text-anchor:middle; fill:#111; }
      .small { font-size:15px; }
    </style>
  </defs>
  <rect width="1100" height="980" fill="white"/>

  <rect class="box" x="430" y="20" width="240" height="62"/>
  <text class="label" x="550" y="47">User clicks Run</text>
  <text class="label small" x="550" y="68">Hub MasterAgentPanel</text>

  <rect class="box" x="420" y="120" width="260" height="62"/>
  <text class="label" x="550" y="157">POST /api/ai/full-analysis</text>

  <rect class="box" x="405" y="220" width="290" height="78"/>
  <text class="label" x="550" y="251">buildExecutionCanvas</text>
  <text class="label small" x="550" y="276">onboarding, documents, profile</text>

  <rect class="box" x="55" y="345" width="250" height="72"/>
  <text class="label" x="180" y="375">prefetchGovMarketData</text>
  <text class="label small" x="180" y="399">parallel</text>

  <rect class="box" x="425" y="345" width="250" height="72"/>
  <text class="label" x="550" y="375">buildFinancialHealthScore</text>
  <text class="label small" x="550" y="399">parallel</text>

  <rect class="box" x="795" y="345" width="250" height="72"/>
  <text class="label" x="920" y="375">Promise.allSettled</text>
  <text class="label small" x="920" y="399">5 agents</text>

  <rect class="box" x="20" y="505" width="190" height="58"/>
  <text class="label small" x="115" y="540">payslipAgent</text>
  <rect class="box" x="235" y="505" width="190" height="58"/>
  <text class="label small" x="330" y="540">insuranceAgent</text>
  <rect class="box" x="455" y="505" width="190" height="58"/>
  <text class="label small" x="550" y="540">pensionAgent</text>
  <rect class="box" x="675" y="505" width="190" height="58"/>
  <text class="label small" x="770" y="540">gemelAgent</text>
  <rect class="box" x="890" y="505" width="190" height="58"/>
  <text class="label small" x="985" y="531">financialProfile</text>
  <text class="label small" x="985" y="550">Agent</text>

  <rect class="box" x="410" y="650" width="280" height="76"/>
  <text class="label" x="550" y="681">mergeRecommendations</text>
  <text class="label small" x="550" y="706">deduplicate and rank</text>

  <rect class="box" x="425" y="775" width="250" height="68"/>
  <text class="label" x="550" y="804">Hebrew summary</text>
  <text class="label small" x="550" y="827">Claude or rule fallback</text>

  <rect class="box" x="435" y="885" width="230" height="58"/>
  <text class="label small" x="550" y="920">Response + AgentRunLog</text>

  <path class="line" d="M550 82 L550 120"/>
  <path class="line" d="M550 182 L550 220"/>
  <path class="line" d="M470 298 L180 345"/>
  <path class="line" d="M550 298 L550 345"/>
  <path class="line" d="M630 298 L920 345"/>

  <path class="line" d="M880 417 L115 505"/>
  <path class="line" d="M900 417 L330 505"/>
  <path class="line" d="M920 417 L550 505"/>
  <path class="line" d="M940 417 L770 505"/>
  <path class="line" d="M960 417 L985 505"/>

  <path class="line" d="M115 563 L455 650"/>
  <path class="line" d="M330 563 L500 650"/>
  <path class="line" d="M550 563 L550 650"/>
  <path class="line" d="M770 563 L600 650"/>
  <path class="line" d="M985 563 L645 650"/>

  <path class="line" d="M550 726 L550 775"/>
  <path class="line" d="M550 843 L550 885"/>
</svg>
