<?xml version="1.0" encoding="UTF-8"?>
<svg xmlns="http://www.w3.org/2000/svg" width="480" height="460" viewBox="0 0 480 460">
  <rect width="100%" height="100%" fill="white"/>
  <text x="240" y="18" text-anchor="middle" font-family="Times New Roman" font-size="15" font-weight="bold">Capability Comparison (qualitative scale)</text>
  <text x="215" y="32" text-anchor="middle" font-family="Times New Roman" font-size="12" font-weight="bold">Manual</text><text x="285" y="32" text-anchor="middle" font-family="Times New Roman" font-size="12" font-weight="bold">Hilan/iCount</text><text x="355" y="32" text-anchor="middle" font-family="Times New Roman" font-size="12" font-weight="bold">Bank PFM</text><text x="425" y="32" text-anchor="middle" font-family="Times New Roman" font-size="12" font-weight="bold">FinGuide</text><text x="170" y="109" text-anchor="end" font-family="Times New Roman" font-size="12">Payslip parse</text><rect x="180" y="70" width="66" height="66" fill="#f9a825" stroke="#333" stroke-width="0.5"/><text x="213" y="105" text-anchor="middle" font-family="Times New Roman" font-size="11" fill="#111">Partial</text><rect x="250" y="70" width="66" height="66" fill="#2e7d32" stroke="#333" stroke-width="0.5"/><text x="283" y="105" text-anchor="middle" font-family="Times New Roman" font-size="11" fill="#111">Yes</text><rect x="320" y="70" width="66" height="66" fill="#e0e0e0" stroke="#333" stroke-width="0.5"/><text x="353" y="105" text-anchor="middle" font-family="Times New Roman" font-size="11" fill="#111">No</text><rect x="390" y="70" width="66" height="66" fill="#2e7d32" stroke="#333" stroke-width="0.5"/><text x="423" y="105" text-anchor="middle" font-family="Times New Roman" font-size="11" fill="#111">Yes</text><text x="170" y="179" text-anchor="end" font-family="Times New Roman" font-size="12">Compliance checks</text><rect x="180" y="140" width="66" height="66" fill="#f9a825" stroke="#333" stroke-width="0.5"/><text x="213" y="175" text-anchor="middle" font-family="Times New Roman" font-size="11" fill="#111">Partial</text><rect x="250" y="140" width="66" height="66" fill="#e0e0e0" stroke="#333" stroke-width="0.5"/><text x="283" y="175" text-anchor="middle" font-family="Times New Roman" font-size="11" fill="#111">No</text><rect x="320" y="140" width="66" height="66" fill="#e0e0e0" stroke="#333" stroke-width="0.5"/><text x="353" y="175" text-anchor="middle" font-family="Times New Roman" font-size="11" fill="#111">No</text><rect x="390" y="140" width="66" height="66" fill="#2e7d32" stroke="#333" stroke-width="0.5"/><text x="423" y="175" text-anchor="middle" font-family="Times New Roman" font-size="11" fill="#111">Yes</text><text x="170" y="249" text-anchor="end" font-family="Times New Roman" font-size="12">Longitudinal view</text><rect x="180" y="210" width="66" height="66" fill="#e0e0e0" stroke="#333" stroke-width="0.5"/><text x="213" y="245" text-anchor="middle" font-family="Times New Roman" font-size="11" fill="#111">No</text><rect x="250" y="210" width="66" height="66" fill="#e0e0e0" stroke="#333" stroke-width="0.5"/><text x="283" y="245" text-anchor="middle" font-family="Times New Roman" font-size="11" fill="#111">No</text><rect x="320" y="210" width="66" height="66" fill="#f9a825" stroke="#333" stroke-width="0.5"/><text x="353" y="245" text-anchor="middle" font-family="Times New Roman" font-size="11" fill="#111">Partial</text><rect x="390" y="210" width="66" height="66" fill="#2e7d32" stroke="#333" stroke-width="0.5"/><text x="423" y="245" text-anchor="middle" font-family="Times New Roman" font-size="11" fill="#111">Yes</text><text x="170" y="319" text-anchor="end" font-family="Times New Roman" font-size="12">Hebrew AI advisory</text><rect x="180" y="280" width="66" height="66" fill="#e0e0e0" stroke="#333" stroke-width="0.5"/><text x="213" y="315" text-anchor="middle" font-family="Times New Roman" font-size="11" fill="#111">No</text><rect x="250" y="280" width="66" height="66" fill="#e0e0e0" stroke="#333" stroke-width="0.5"/><text x="283" y="315" text-anchor="middle" font-family="Times New Roman" font-size="11" fill="#111">No</text><rect x="320" y="280" width="66" height="66" fill="#e0e0e0" stroke="#333" stroke-width="0.5"/><text x="353" y="315" text-anchor="middle" font-family="Times New Roman" font-size="11" fill="#111">No</text><rect x="390" y="280" width="66" height="66" fill="#2e7d32" stroke="#333" stroke-width="0.5"/><text x="423" y="315" text-anchor="middle" font-family="Times New Roman" font-size="11" fill="#111">Yes</text><text x="170" y="389" text-anchor="end" font-family="Times New Roman" font-size="12">No banking API</text><rect x="180" y="350" width="66" height="66" fill="#2e7d32" stroke="#333" stroke-width="0.5"/><text x="213" y="385" text-anchor="middle" font-family="Times New Roman" font-size="11" fill="#111">Yes</text><rect x="250" y="350" width="66" height="66" fill="#2e7d32" stroke="#333" stroke-width="0.5"/><text x="283" y="385" text-anchor="middle" font-family="Times New Roman" font-size="11" fill="#111">Yes</text><rect x="320" y="350" width="66" height="66" fill="#e0e0e0" stroke="#333" stroke-width="0.5"/><text x="353" y="385" text-anchor="middle" font-family="Times New Roman" font-size="11" fill="#111">No</text><rect x="390" y="350" width="66" height="66" fill="#2e7d32" stroke="#333" stroke-width="0.5"/><text x="423" y="385" text-anchor="middle" font-family="Times New Roman" font-size="11" fill="#111">Yes</text>
  <text x="240" y="452" text-anchor="middle" font-family="Times New Roman" font-size="10">Yes = full support; Partial = manual/limited; No = not supported</text>
</svg>